<svg  viewBox="0 0 39 30.3333" fill="none" xmlns="http://www.w3.org/2000/svg">
<path id="icon" fill-rule="evenodd" clip-rule="evenodd" d="M0 4.5C0 2.01472 2.01472 0 4.5 0H34.5C36.9853 0 39 2.01472 39 4.5V25.8333C39 28.3186 36.9853 30.3333 34.5 30.3333H4.5C2.01472 30.3333 0 28.3186 0 25.8333V4.5ZM15.8683 11.2011C15.8683 13.0614 14.3602 14.5695 12.4999 14.5695C10.6396 14.5695 9.13147 13.0614 9.13147 11.2011C9.13147 9.34082 10.6396 7.83274 12.4999 7.83274C14.3602 7.83274 15.8683 9.34082 15.8683 11.2011ZM19.1667 19.8991C19.1667 22.1557 15.1035 22.2479 12.5 22.2479C9.89651 22.2479 5.83333 22.1557 5.83333 19.8991C5.83333 17.6425 8.8181 15.6666 12.5 15.6666C16.1819 15.6666 19.1667 17.6425 19.1667 19.8991ZM22.9999 10.46C22.9999 9.81562 23.5222 9.29329 24.1665 9.29329H31.4999C32.1442 9.29329 32.6665 9.81562 32.6665 10.46C32.6665 11.1043 32.1442 11.6266 31.4999 11.6266H24.1665C23.5222 11.6266 22.9999 11.1043 22.9999 10.46ZM24.1665 13.6266C23.5222 13.6266 22.9999 14.149 22.9999 14.7933C22.9999 15.4376 23.5222 15.96 24.1665 15.96H31.4999C32.1442 15.96 32.6665 15.4376 32.6665 14.7933C32.6665 14.149 32.1442 13.6266 31.4999 13.6266H24.1665ZM22.9999 19.1266C22.9999 18.4823 23.5222 17.96 24.1665 17.96H31.4999C32.1442 17.96 32.6665 18.4823 32.6665 19.1266C32.6665 19.771 32.1442 20.2933 31.4999 20.2933H24.1665C23.5222 20.2933 22.9999 19.771 22.9999 19.1266Z" fill=""/>
</svg>
