<svg  viewBox="0 0 19.423 19.6624" fill="none" xmlns="http://www.w3.org/2000/svg">
<g id="icon">
<path d="M13.0382 0.698308C14.1989 -0.323455 15.9682 -0.210783 16.99 0.949969L18.6702 2.85871C19.6919 4.01946 19.5793 5.78874 18.4185 6.81051L9.88679 14.3206C9.6101 14.5642 9.26531 14.7169 8.89901 14.7582L3.03785 15.4186C2.45867 15.4839 2.00634 14.9278 2.18822 14.374L3.94119 9.03702C4.04132 8.73217 4.22112 8.45962 4.46198 8.24761L13.0382 0.698308Z" fill="#4A5667"/>
<path d="M0.9 17.8624C0.402944 17.8624 0 18.2653 0 18.7624C0 19.2595 0.402944 19.6624 0.9 19.6624H18.523C19.02 19.6624 19.423 19.2595 19.423 18.7624C19.423 18.2653 19.02 17.8624 18.523 17.8624H0.9Z" fill="#4A5667"/>
</g>
</svg>
