<svg preserveAspectRatio="none" width="100%" height="100%" overflow="visible" style="display: block;" viewBox="0 0 18 20" fill="none" xmlns="http://www.w3.org/2000/svg">
<g id="icon">
<path d="M9.00005 0C6.35269 0 4.20657 2.20532 4.20657 4.92573C4.20657 7.64615 6.35269 9.85146 9.00005 9.85146C11.6474 9.85146 13.7935 7.64615 13.7935 4.92573C13.7935 2.20532 11.6474 0 9.00005 0Z" fill="var(--fill-0, #99CEFF)"/>
<path d="M9 11.3605C6.63807 11.3605 4.45885 11.8997 2.83904 12.802C1.25937 13.6818 0 15.0442 0 16.7579C0 17.7547 0.534568 18.463 1.23299 18.9164C1.89444 19.3458 2.74928 19.5863 3.60657 19.7329C5.19379 20.0044 7.11593 20.0017 8.62356 19.9996C8.75194 19.9994 8.8781 19.9993 9 19.9993C9.1219 19.9993 9.24727 19.9994 9.37564 19.9996C10.8833 20.0017 12.8062 20.0044 14.3934 19.7329C15.2507 19.5863 16.1056 19.3458 16.767 18.9164C17.4654 18.463 18 17.7547 18 16.7579C18 15.0442 16.7406 13.6818 15.161 12.802C13.5412 11.8997 11.3619 11.3605 9 11.3605Z" fill="var(--fill-0, #99CEFF)"/>
</g>
</svg>
