<svg  viewBox="0 0 21.45 16.6833" fill="none" xmlns="http://www.w3.org/2000/svg">
<g id="icon">
<path d="M0 2.475C0 1.1081 1.10809 0 2.475 0H18.975C20.3419 0 21.45 1.10809 21.45 2.475V4.21649H0V2.475Z" fill=""/>
<path fill-rule="evenodd" clip-rule="evenodd" d="M0 6.23316V14.2083C0 15.5752 1.1081 16.6833 2.475 16.6833H18.975C20.3419 16.6833 21.45 15.5752 21.45 14.2083V6.23316H0ZM3.66667 11.4589C3.66667 11.0032 4.03603 10.6339 4.49167 10.6339H8.15833C8.61397 10.6339 8.98333 11.0032 8.98333 11.4589C8.98333 11.9145 8.61397 12.2839 8.15833 12.2839H4.49167C4.03603 12.2839 3.66667 11.9145 3.66667 11.4589Z" fill=""/>
</g>
</svg>
