<svg  viewBox="0 0 13.5 15" fill="none" xmlns="http://www.w3.org/2000/svg">
<g id="icon">
<path d="M6.75004 0C4.76452 0 3.15493 1.65399 3.15493 3.6943C3.15493 5.73461 4.76452 7.3886 6.75004 7.3886C8.73555 7.3886 10.3451 5.73461 10.3451 3.6943C10.3451 1.65399 8.73555 0 6.75004 0Z" fill="#CBD1DC"/>
<path d="M6.75 8.52037C4.97855 8.52037 3.34413 8.92479 2.12928 9.60147C0.944526 10.2614 0 11.2832 0 12.5684C0 13.316 0.400926 13.8473 0.92474 14.1873C1.42083 14.5094 2.06196 14.6897 2.70493 14.7997C3.89534 15.0033 5.33694 15.0013 6.46767 14.9997C6.56395 14.9996 6.65858 14.9994 6.75 14.9994C6.84143 14.9994 6.93545 14.9996 7.03173 14.9997C8.16246 15.0013 9.60466 15.0033 10.7951 14.7997C11.438 14.6897 12.0792 14.5094 12.5753 14.1873C13.0991 13.8473 13.5 13.316 13.5 12.5684C13.5 11.2832 12.5555 10.2614 11.3707 9.60147C10.1559 8.92479 8.52145 8.52037 6.75 8.52037Z" fill="#CBD1DC"/>
</g>
</svg>
