<svg preserveAspectRatio="none" width="100%" height="100%" overflow="visible" style="display: block;" viewBox="0 0 48.0035 20.0025" fill="none" xmlns="http://www.w3.org/2000/svg">
<g id="Frame 1321314841">
<path id="Vector" fill-rule="evenodd" clip-rule="evenodd" d="M38.0022 20H10.0012C4.47568 20 0 15.5243 0 10.0012C0 4.47817 4.47817 0 10.0012 0H38.0022C43.5253 0 48.0035 4.47817 48.0035 10.0012C48.0035 15.5243 43.5278 20.0025 38.0022 20.0025" fill="var(--fill-0, #FFEB00)"/>
<g id="Group">
<path id="Vector_2" fill-rule="evenodd" clip-rule="evenodd" d="M11.2299 4.79932C8.21706 4.79932 5.77148 6.7299 5.77148 9.1108C5.77148 10.6408 6.78405 11.9843 8.30414 12.7506L7.78915 14.6712C7.76925 14.7309 7.78666 14.7931 7.82895 14.8354C7.85881 14.8652 7.89861 14.8802 7.94091 14.8802C7.97325 14.8802 8.00559 14.8677 8.03545 14.8453L10.2472 13.3526C10.5681 13.3974 10.8965 13.4248 11.2299 13.4248C14.2427 13.4248 16.6883 11.4942 16.6883 9.11329C16.6883 6.73239 14.2452 4.8018 11.2299 4.8018V4.79932Z" fill="var(--fill-0, black)"/>
<path id="Vector_3" d="M21.2875 12.6934V15.4773H19.3047V5.20985H20.7029L20.9467 5.86168C21.3671 5.44123 22.0065 4.99341 23.039 4.99341C24.982 4.99341 25.905 6.44632 25.8901 8.79488C25.8901 11.2529 24.4645 12.8277 22.427 12.8277C22.0339 12.8277 21.7353 12.8003 21.2875 12.6909V12.6934ZM21.2875 6.86678V11.3076C21.397 11.3201 21.6682 11.3474 21.9269 11.3474C23.34 11.3474 23.8824 10.3573 23.8824 8.79488C23.8824 7.42406 23.5167 6.5956 22.3896 6.5956C22.0239 6.5956 21.6159 6.70506 21.29 6.86678H21.2875Z" fill="var(--fill-0, black)"/>
<path id="Vector_4" d="M30.2148 8.08333H31.3418V7.83952C31.3418 7.02599 30.8791 6.64534 30.078 6.64534C29.466 6.64534 28.6798 6.82198 28.0404 7.13545L27.4981 5.80444C28.2046 5.31433 29.2893 4.97598 30.2546 4.97598C32.1554 4.97598 33.1878 5.98108 33.1878 7.89674V12.6088H31.7896L31.5856 11.9843C30.7845 12.569 30.0506 12.8128 29.3864 12.8128C27.9334 12.8128 27.1174 11.9445 27.1174 10.4767C27.1174 8.91428 28.2046 8.08582 30.2123 8.08582L30.2148 8.08333ZM31.3418 10.7031V9.34468H30.4313C29.4137 9.34468 28.8963 9.7104 28.8963 10.4443C28.8963 11.0016 29.1824 11.2728 29.7645 11.2728C30.3069 11.2728 31.001 11.0016 31.3393 10.7031H31.3418Z" fill="var(--fill-0, black)"/>
<path id="Vector_5" d="M39.1836 11.8649C38.492 13.7109 37.6635 15.0568 36.4544 15.8032L35.2329 14.6762C35.9394 14.0642 36.442 13.4671 36.8749 12.666L34.2402 5.48351L36.2081 4.95359L37.8924 10.7802L39.5618 4.92871L41.5048 5.47107L39.1836 11.8674V11.8649Z" fill="var(--fill-0, black)"/>
</g>
</g>
</svg>
