<svg preserveAspectRatio="none" width="100%" height="100%" overflow="visible" style="display: block;" viewBox="0 0 49.3737 15.6" fill="none" xmlns="http://www.w3.org/2000/svg">
<g id="Group">
<path id="Vector" d="M49.3737 3.10217L44.3583 14.3732H42.0357L43.6407 10.8008L39.7854 3.10217H42.1782L44.7405 8.36717L47.0571 3.10217H49.3737ZM38.6487 11.7602H36.4257V11.1381C35.7099 11.6808 34.8336 11.9684 33.9354 11.9552C31.4844 11.9552 29.5616 9.96617 29.5616 7.43117C29.5616 4.89617 31.4844 2.90718 33.9354 2.90718C34.8336 2.89393 35.7099 3.18155 36.4257 3.72422V3.10217H38.6487V11.7602ZM34.2435 4.77917C32.8434 4.77917 31.7865 5.91992 31.7865 7.43117C31.7865 8.94242 32.8434 10.0832 34.2435 10.0832C35.6436 10.0832 36.7005 8.94242 36.7005 7.43117C36.7005 5.91992 35.6436 4.77917 34.2435 4.77917ZM19.2656 3.10217H21.4886V3.72422C22.2051 3.18182 23.0822 2.89425 23.9807 2.90718C26.4319 2.90718 28.3527 4.89422 28.3527 7.43117C28.3527 9.96812 26.4319 11.9552 23.9807 11.9552C23.1152 11.9682 22.2685 11.7014 21.5666 11.1947V14.3732H19.2656V3.10217ZM21.2156 7.43117C21.2156 8.94242 22.2726 10.0832 23.6727 10.0832C25.0728 10.0832 26.1296 8.94242 26.1296 7.43117C26.1296 5.91992 25.0728 4.77917 23.6727 4.77917C22.2726 4.77917 21.2156 5.91992 21.2156 7.43117Z" fill="var(--fill-0, #03C75A)"/>
<path id="Vector_2" d="M15.6 7.8C15.6 9.34269 15.1426 10.8508 14.2855 12.1334C13.4284 13.4161 12.2102 14.4159 10.7849 15.0063C9.35967 15.5966 7.79136 15.7511 6.27831 15.4501C4.76526 15.1492 3.37542 14.4063 2.28457 13.3154C1.19372 12.2246 0.450843 10.8348 0.149878 9.32172C-0.151087 7.80867 0.00338184 6.24033 0.593745 4.81506C1.18411 3.38982 2.18386 2.17161 3.46656 1.31454C4.74927 0.457461 6.25731 0 7.8 0C9.86871 0 11.8527 0.821784 13.3154 2.28457C14.7782 3.74736 15.6 5.73132 15.6 7.8ZM9.4302 3.783V8.3187L6.24585 3.783H3.783V11.817H6.17175V7.27935L9.3561 11.817H11.817V3.783H9.4302Z" fill="var(--fill-0, #03C75A)"/>
</g>
</svg>
