<svg  viewBox="0 0 24 24" fill="none" xmlns="http://www.w3.org/2000/svg">
<g id="Group Copy">
<path id="Rectangle 8" d="M24 12C24 5.37258 18.6274 0 12 0C5.37258 0 0 5.37258 0 12C0 18.6274 5.37258 24 12 24C18.6274 24 24 18.6274 24 12Z" fill="#FAE100"/>
<path id="Fill 1" fill-rule="evenodd" clip-rule="evenodd" d="M11.9974 6.2998C8.37029 6.2998 5.42999 8.56087 5.42999 11.35C5.42999 13.1532 6.65923 14.7354 8.50833 15.6289C8.40774 15.9673 7.86189 17.8056 7.84016 17.9501C7.84016 17.9501 7.82709 18.0586 7.89914 18.1C7.97119 18.1414 8.05594 18.1092 8.05594 18.1092C8.26256 18.0811 10.452 16.5812 10.8309 16.3207C11.2095 16.373 11.5993 16.4002 11.9974 16.4002C15.6245 16.4002 18.5648 14.1392 18.5648 11.35C18.5648 8.56087 15.6245 6.2998 11.9974 6.2998Z" fill="#202326"/>
</g>
</svg>
