<svg preserveAspectRatio="none" width="100%" height="100%" overflow="visible" style="display: block;" viewBox="0 0 24 24" fill="none" xmlns="http://www.w3.org/2000/svg">
<g id="sign apple icon">
<path id="Rectangle 8 Copy 2" d="M24 12C24 5.37258 18.6274 0 12 0C5.37258 0 0 5.37258 0 12C0 18.6274 5.37258 24 12 24C18.6274 24 24 18.6274 24 12Z" fill="var(--fill-0, black)"/>
<path id="Combined Shape" d="M13.7131 6.65341C13.2713 7.19724 12.515 7.59661 11.9117 7.59661C11.8437 7.59661 11.7757 7.58811 11.7332 7.57961C11.7248 7.54562 11.7078 7.44366 11.7078 7.34169C11.7078 6.65341 12.0561 5.97363 12.4385 5.54027C12.9144 4.97945 13.7216 4.56309 14.3844 4.5376C14.4014 4.61407 14.4099 4.70754 14.4099 4.80101C14.4099 5.48079 14.121 6.16057 13.7131 6.65341ZM14.1805 7.74106C14.5628 7.74106 15.9224 7.77505 16.8146 9.06663C16.7381 9.12611 15.3786 9.88237 15.3786 11.5903C15.3786 13.5617 17.1035 14.2584 17.1545 14.2754C17.146 14.3264 16.8826 15.2271 16.2453 16.1618C15.6845 16.9776 15.0812 17.8018 14.1805 17.8018C13.2797 17.8018 13.0418 17.2665 12.0052 17.2665C10.9855 17.2665 10.6286 17.8188 9.80437 17.8188C8.98014 17.8188 8.40233 17.054 7.73954 16.1278C6.97479 15.0317 6.35449 13.3407 6.35449 11.7263C6.35449 9.1516 8.02845 7.77505 9.68541 7.77505C10.5606 7.77505 11.2914 8.35286 11.8437 8.35286C12.362 8.35286 13.1778 7.74106 14.1805 7.74106Z" fill="var(--fill-0, white)"/>
</g>
</svg>
