<svg  viewBox="0 0 23.6643 21.12" fill="none" xmlns="http://www.w3.org/2000/svg">
<g id="Socar_Symbol_Gradient_Blue">
<path id="Vector" d="M0.970694 13.1991H9.19307L14.4733 7.91894C14.4733 7.91894 16.8519 5.54842 17.0931 0.784314C17.1147 0.357618 16.7734 0 16.3453 0H8.48191C8.01999 0 7.64071 0.356262 7.60413 0.816823C7.50118 2.14703 6.89704 4.93478 3.91287 7.91894L0.285271 11.5465C-0.324296 12.1561 0.107817 13.1991 0.969338 13.1991H0.970694Z" fill="url(#paint0_linear_0_4)"/>
<path id="Vector_2" d="M22.6937 7.9209H14.4713L9.19107 13.2011C9.19107 13.2011 6.81241 15.5716 6.57129 20.3357C6.54962 20.7624 6.89097 21.12 7.31902 21.12H15.1824C15.6444 21.12 16.0236 20.7638 16.0602 20.3032C16.1632 18.973 16.7673 16.1853 19.7515 13.2011L23.3791 9.57349C23.9886 8.96393 23.5565 7.9209 22.695 7.9209H22.6937Z" fill="url(#paint1_linear_0_4)"/>
<path id="Vector_3" d="M22.6937 7.9209H14.4713L9.19107 13.2011C9.19107 13.2011 6.81241 15.5716 6.57129 20.3357C6.54962 20.7624 6.89097 21.12 7.31902 21.12H15.1824C15.6335 21.12 16.025 20.7529 16.0602 20.3032C16.1632 18.973 16.7673 16.1853 19.7515 13.2011L23.3791 9.57349C23.9886 8.96393 23.5565 7.9209 22.695 7.9209H22.6937Z" fill="url(#paint2_linear_0_4)"/>
</g>
<defs>
<linearGradient id="paint0_linear_0_4" x1="8.54693" y1="13.1639" x2="8.54693" y2="-0.0352196" gradientUnits="userSpaceOnUse">
<stop offset="0.2" stop-color="#3393FF"/>
<stop offset="1" stop-color="#005AFF"/>
</linearGradient>
<linearGradient id="paint1_linear_0_4" x1="15.1174" y1="21.12" x2="15.1174" y2="7.9209" gradientUnits="userSpaceOnUse">
<stop offset="0.2" stop-color="#3393FF"/>
<stop offset="1" stop-color="#005AFF"/>
</linearGradient>
<linearGradient id="paint2_linear_0_4" x1="18.596" y1="18.0627" x2="11.4627" y2="10.9294" gradientUnits="userSpaceOnUse">
<stop offset="0.6" stop-color="#3393FF" stop-opacity="0"/>
<stop offset="1" stop-color="#0041E6"/>
</linearGradient>
</defs>
</svg>
