<svg  viewBox="0 0 71.1358 15.3648" fill="none" xmlns="http://www.w3.org/2000/svg">
<g id="Socar_Logotype_Black">
<path id="Vector" d="M2.5954 14.7182C1.58216 14.2902 0.71658 13.6616 6.90006e-07 12.834L2.08608 10.7479C2.65771 11.3317 3.32281 11.8356 3.91884 12.0998C4.51486 12.3639 5.20028 12.4953 5.97646 12.4953C6.8583 12.4953 7.53966 12.3382 8.01919 12.0226C8.49872 11.707 8.73848 11.2762 8.73848 10.7303C8.73848 10.4201 8.65585 10.1587 8.49194 9.94734C8.32668 9.73602 8.05305 9.55043 7.67106 9.38923C7.28771 9.22939 6.74316 9.06958 6.03471 8.90973L5.26394 8.72685C3.67365 8.34079 2.48432 7.80167 1.6946 7.11083C0.90487 6.41863 0.509329 5.55574 0.509329 4.52084C0.509329 3.66473 0.761277 2.88992 1.26519 2.19908C1.76909 1.50688 2.45723 0.969117 3.32959 0.583059C4.20195 0.197 5.18132 0.00464499 6.26635 0.00464499C7.35138 0.00464499 8.36461 0.214592 9.33449 0.633161C10.3044 1.05173 11.1429 1.64234 11.85 2.40498L9.75035 4.5046C9.26541 3.98714 8.66126 3.51711 8.09911 3.25838C7.53695 2.99965 6.92061 2.86959 6.2528 2.86959C5.5159 2.86959 4.9253 3.01589 4.47828 3.30713C4.03262 3.59836 3.80911 3.98035 3.80911 4.45039C3.80911 4.68609 3.87955 4.88524 4.02043 5.0505C4.16131 5.21576 4.38888 5.36338 4.7045 5.49478C5.01876 5.62617 5.45765 5.76299 6.01981 5.90387L6.81901 6.10167C8.63146 6.51617 9.96032 7.09184 10.8029 7.83145C11.6468 8.57106 12.0681 9.51387 12.0681 10.6612C12.0681 11.5742 11.8107 12.3856 11.2973 13.0968C10.7839 13.8079 10.0633 14.3633 9.13808 14.7629C8.2129 15.1625 7.14819 15.363 5.94666 15.363C4.74514 15.363 3.60728 15.149 2.5954 14.7209V14.7182Z" fill="black"/>
<path id="Vector_2" d="M16.8498 14.3573C15.7268 13.6895 14.8409 12.767 14.1934 11.5899C13.5459 10.4141 13.2208 9.10963 13.2208 7.67918C13.2208 6.24873 13.5446 4.92123 14.1934 3.75493C14.8409 2.58862 15.7268 1.6702 16.8498 1.00239C17.9727 0.334571 19.2189 0 20.5884 0C21.9579 0 23.2312 0.334571 24.3542 1.00239C25.4772 1.6702 26.3604 2.58862 27.0038 3.75493C27.6472 4.92258 27.9696 6.22976 27.9696 7.67918C27.9696 9.12859 27.6472 10.4127 27.0038 11.5899C26.3604 12.767 25.4772 13.6882 24.3542 14.3573C23.2312 15.0251 21.9755 15.3597 20.5884 15.3597C19.2013 15.3597 17.9727 15.0251 16.8498 14.3573ZM22.7585 11.6684C23.3925 11.2783 23.8855 10.7365 24.2377 10.0456C24.5886 9.35345 24.7647 8.56644 24.7647 7.68053C24.7647 6.79463 24.5913 5.99406 24.2445 5.30186C23.8977 4.60966 23.4046 4.0719 22.7653 3.68584C22.1259 3.29978 21.4053 3.10743 20.602 3.10743C19.7987 3.10743 19.0686 3.29978 18.4387 3.68584C17.8088 4.0719 17.313 4.61102 16.9527 5.30186C16.5924 5.99406 16.4122 6.7865 16.4122 7.68053C16.4122 8.57456 16.5924 9.35345 16.9527 10.0456C17.313 10.7378 17.8088 11.2783 18.4387 11.6684C19.0686 12.0586 19.7852 12.2536 20.5884 12.2536C21.3917 12.2536 22.1246 12.0586 22.7585 11.6684Z" fill="black"/>
<path id="Vector_3" d="M54.5599 2.49922H54.4068C54.0289 1.81921 53.5981 1.2733 53.0333 0.868282C52.2259 0.289871 51.2466 0 50.0965 0C48.8273 0 47.6867 0.334571 46.6735 1.00239C45.6602 1.6702 44.8678 2.58862 44.2975 3.75493C43.7272 4.92258 43.4414 6.22976 43.4414 7.67918C43.4414 9.12859 43.7259 10.4249 44.2975 11.5966C44.8678 12.7684 45.6602 13.6882 46.6735 14.356C47.6867 15.0238 48.8273 15.3584 50.0965 15.3584C51.2466 15.3584 52.2259 15.0685 53.0333 14.4901C53.5981 14.085 54.0289 13.5405 54.4068 12.8591H54.5599V14.9628H57.8055V0.394174H54.5599V2.49786V2.49922ZM52.7529 11.6684C52.1501 12.0586 51.466 12.2536 50.6993 12.2536C49.9326 12.2536 49.2499 12.0586 48.6525 11.6684C48.0551 11.2783 47.5837 10.7351 47.2424 10.0375C46.8997 9.34125 46.729 8.5556 46.729 7.68053C46.729 6.80547 46.8997 5.99406 47.2424 5.30186C47.5851 4.60966 48.0551 4.0719 48.6525 3.68584C49.2499 3.29978 49.9326 3.10743 50.6993 3.10743C51.466 3.10743 52.1514 3.29978 52.7529 3.68584C53.3557 4.0719 53.8257 4.61102 54.163 5.30186C54.5003 5.99406 54.6696 6.7865 54.6696 7.68053C54.6696 8.57456 54.5003 9.35345 54.163 10.0456C53.8257 10.7378 53.3557 11.2783 52.7529 11.6684Z" fill="black"/>
<path id="Vector_4" d="M37.0896 15.3593C35.6646 15.3593 34.375 15.022 33.2209 14.3461C32.0668 13.6702 31.1592 12.749 30.4968 11.5814C29.8344 10.4137 29.5039 9.11331 29.5039 7.68015C29.5039 6.24699 29.8344 4.92086 30.4968 3.76404C31.1592 2.60722 32.0668 1.69015 33.2209 1.01421C34.375 0.338267 35.6646 0.000976562 37.0896 0.000976562C38.2139 0.000976562 39.2624 0.221759 40.235 0.662002C41.2076 1.10224 42.1815 1.82697 42.8643 2.6465L40.6644 4.84636C40.2431 4.33432 39.6485 3.86697 39.0457 3.61095C38.4442 3.35493 37.7913 3.22759 37.0896 3.22759C36.266 3.22759 35.5345 3.41726 34.8925 3.79655C34.2504 4.17583 33.7492 4.69733 33.3875 5.36379C33.0258 6.02889 32.8457 6.80238 32.8457 7.68287C32.8457 8.56335 33.0258 9.33681 33.3875 10.0019C33.7492 10.667 34.2504 11.1953 34.8925 11.5841C35.5345 11.9729 36.2674 12.1679 37.0896 12.1679C37.7913 12.1679 38.4442 12.0406 39.0457 11.7846C39.6471 11.5286 40.2445 11.0599 40.6658 10.5478L42.8643 12.7463C42.1815 13.5658 41.2076 14.2635 40.235 14.7037C39.261 15.144 38.2126 15.3648 37.0896 15.3648V15.3593Z" fill="black"/>
<path id="Vector_5" d="M63.3699 0.396847V2.54253H63.5229C63.5229 2.54253 64.5267 0.0771484 67.1763 0.0771484C70.0006 0.0771484 71.1358 2.11582 71.1358 2.11582L68.9467 4.30486C68.9467 4.30486 68.1665 3.26993 66.6399 3.26993C65.1132 3.26993 63.3712 3.97837 63.3712 7.93378V14.9641H60.1094V0.395491H63.3699V0.396847Z" fill="black"/>
</g>
</svg>
